<svg width="24" height="24" viewBox="0 0 24 24" fill="none" xmlns="http://www.w3.org/2000/svg">
<g clip-path="url(#clip0_131_155)">
<path d="M18.6667 2.5C19.5507 2.5 20.3986 2.85119 21.0237 3.47631C21.6488 4.10143 22 4.94928 22 5.83333V19.1667C22 20.0507 21.6488 20.8986 21.0237 21.5237C20.3986 22.1488 19.5507 22.5 18.6667 22.5H5.33333C4.44928 22.5 3.60143 22.1488 2.97631 21.5237C2.35119 20.8986 2 20.0507 2 19.1667V5.83333C2 4.94928 2.35119 4.10143 2.97631 3.47631C3.60143 2.85119 4.44928 2.5 5.33333 2.5H18.6667ZM18.6667 4.72222H5.33333C5.03865 4.72222 4.75603 4.83929 4.54766 5.04766C4.33929 5.25603 4.22222 5.53865 4.22222 5.83333V19.1667C4.22222 19.4614 4.33929 19.744 4.54766 19.9523C4.75603 20.1607 5.03865 20.2778 5.33333 20.2778H18.6667C18.9614 20.2778 19.244 20.1607 19.4523 19.9523C19.6607 19.744 19.7778 19.4614 19.7778 19.1667V5.83333C19.7778 5.53865 19.6607 5.25603 19.4523 5.04766C19.244 4.83929 18.9614 4.72222 18.6667 4.72222ZM7.55556 10.2778C7.8277 10.2778 8.09038 10.3777 8.29375 10.5586C8.49712 10.7394 8.62705 10.9886 8.65889 11.2589L8.66667 11.3889V16.9444C8.66635 17.2276 8.55791 17.5 8.3635 17.706C8.16909 17.9119 7.90339 18.0358 7.62067 18.0524C7.33796 18.069 7.05958 17.977 6.84241 17.7953C6.62524 17.6135 6.48567 17.3557 6.45222 17.0744L6.44444 16.9444V11.3889C6.44444 11.0942 6.56151 10.8116 6.76988 10.6032C6.97826 10.3948 7.26087 10.2778 7.55556 10.2778ZM10.8889 9.16667C11.1491 9.16663 11.4011 9.25792 11.6009 9.42463C11.8007 9.59133 11.9356 9.82288 11.9822 10.0789C12.2058 9.94923 12.437 9.8331 12.6744 9.73111C13.4156 9.41445 14.5256 9.24 15.5278 9.55444C16.0533 9.72111 16.5811 10.0322 16.9722 10.5622C17.3222 11.0344 17.5111 11.6089 17.5489 12.2544L17.5556 12.5V16.9444C17.5552 17.2276 17.4468 17.5 17.2524 17.706C17.058 17.9119 16.7923 18.0358 16.5096 18.0524C16.2268 18.069 15.9485 17.977 15.7313 17.7953C15.5141 17.6135 15.3746 17.3557 15.3411 17.0744L15.3333 16.9444V12.5C15.3333 12.1333 15.2444 11.9622 15.1867 11.8833C15.1037 11.7802 14.9895 11.7068 14.8611 11.6744C14.4744 11.5522 13.9178 11.6167 13.5478 11.7744C12.9922 12.0122 12.4833 12.3856 12.1367 12.7311L12 12.8778V16.9444C11.9997 17.2276 11.8912 17.5 11.6968 17.706C11.5024 17.9119 11.2367 18.0358 10.954 18.0524C10.6713 18.069 10.3929 17.977 10.1757 17.7953C9.95857 17.6135 9.819 17.3557 9.78556 17.0744L9.77778 16.9444V10.2778C9.77778 9.98309 9.89484 9.70048 10.1032 9.4921C10.3116 9.28373 10.5942 9.16667 10.8889 9.16667ZM7.55556 6.94444C7.85024 6.94444 8.13286 7.06151 8.34123 7.26988C8.5496 7.47826 8.66667 7.76087 8.66667 8.05556C8.66667 8.35024 8.5496 8.63286 8.34123 8.84123C8.13286 9.0496 7.85024 9.16667 7.55556 9.16667C7.26087 9.16667 6.97826 9.0496 6.76988 8.84123C6.56151 8.63286 6.44444 8.35024 6.44444 8.05556C6.44444 7.76087 6.56151 7.47826 6.76988 7.26988C6.97826 7.06151 7.26087 6.94444 7.55556 6.94444Z" fill="black"/>
</g>
<defs>
<clipPath id="clip0_131_155">
<rect width="24" height="24" fill="white"/>
</clipPath>
</defs>
</svg>
